<mxfile host="Electron" modified="2024-02-27T12:41:41.080Z" agent="Mozilla/5.0 (Windows NT 10.0; Win64; x64) AppleWebKit/537.36 (KHTML, like Gecko) draw.io/22.1.16 Chrome/120.0.6099.109 Electron/28.1.0 Safari/537.36" etag="oTitlyjdQom09FfDqaWh" version="22.1.16" type="device">
  <diagram id="C5RBs43oDa-KdzZeNtuy" name="Page-1">
    <mxGraphModel dx="1877" dy="1797" grid="1" gridSize="10" guides="1" tooltips="1" connect="1" arrows="1" fold="1" page="1" pageScale="1" pageWidth="827" pageHeight="1169" math="0" shadow="0">
      <root>
        <mxCell id="WIyWlLk6GJQsqaUBKTNV-0" />
        <mxCell id="WIyWlLk6GJQsqaUBKTNV-1" parent="WIyWlLk6GJQsqaUBKTNV-0" />
        <mxCell id="lim1SW6H7U4HnhmGgRTK-30" value="" style="edgeStyle=orthogonalEdgeStyle;rounded=0;orthogonalLoop=1;jettySize=auto;html=1;" parent="WIyWlLk6GJQsqaUBKTNV-1" edge="1">
          <mxGeometry relative="1" as="geometry">
            <mxPoint x="700" y="110" as="sourcePoint" />
          </mxGeometry>
        </mxCell>
        <mxCell id="QHVLCNr028KJjd0Ayz7S-66" value="" style="edgeStyle=orthogonalEdgeStyle;rounded=0;orthogonalLoop=1;jettySize=auto;html=1;" parent="WIyWlLk6GJQsqaUBKTNV-1" source="QHVLCNr028KJjd0Ayz7S-67" target="QHVLCNr028KJjd0Ayz7S-68" edge="1">
          <mxGeometry relative="1" as="geometry" />
        </mxCell>
        <mxCell id="QHVLCNr028KJjd0Ayz7S-67" value="Create a new Observer &quot;RoutingRequestAssignmentObserver&quot; in Qualifier&lt;br style=&quot;border-color: var(--border-color);&quot;&gt;and consume the event &quot;&lt;b style=&quot;border-color: var(--border-color);&quot;&gt;UCX&lt;/b&gt;&lt;b&gt;RoutingRequestAssignment&lt;/b&gt;&quot;&amp;nbsp;" style="rounded=1;whiteSpace=wrap;html=1;absoluteArcSize=1;arcSize=14;strokeWidth=2;" parent="WIyWlLk6GJQsqaUBKTNV-1" vertex="1">
          <mxGeometry x="60" y="-609" width="230" height="100" as="geometry" />
        </mxCell>
        <mxCell id="QHVLCNr028KJjd0Ayz7S-68" value="Handle the new Event in QualifierState model and update&amp;nbsp; the new property(isPermantentAssignment)" style="rounded=1;whiteSpace=wrap;html=1;absoluteArcSize=1;arcSize=14;strokeWidth=2;" parent="WIyWlLk6GJQsqaUBKTNV-1" vertex="1">
          <mxGeometry x="360" y="-609" width="300" height="100" as="geometry" />
        </mxCell>
        <mxCell id="QHVLCNr028KJjd0Ayz7S-69" value="" style="edgeStyle=orthogonalEdgeStyle;rounded=0;orthogonalLoop=1;jettySize=auto;html=1;" parent="WIyWlLk6GJQsqaUBKTNV-1" source="QHVLCNr028KJjd0Ayz7S-70" target="QHVLCNr028KJjd0Ayz7S-71" edge="1">
          <mxGeometry relative="1" as="geometry" />
        </mxCell>
        <mxCell id="QHVLCNr028KJjd0Ayz7S-70" value="Create a new Observer &quot;RoutingRequestAssignmentObserver&quot; in LookupService&amp;nbsp;&lt;br style=&quot;border-color: var(--border-color);&quot;&gt;and consume the event &quot;&lt;b style=&quot;border-color: var(--border-color);&quot;&gt;UCX&lt;/b&gt;RoutingRequestAssignment&lt;br style=&quot;border-color: var(--border-color);&quot;&gt;&quot;&amp;nbsp;" style="rounded=1;whiteSpace=wrap;html=1;absoluteArcSize=1;arcSize=14;strokeWidth=2;" parent="WIyWlLk6GJQsqaUBKTNV-1" vertex="1">
          <mxGeometry x="58" y="-379" width="230" height="100" as="geometry" />
        </mxCell>
        <mxCell id="QHVLCNr028KJjd0Ayz7S-71" value="Handle the new Event by updating CinicalReviewQualifierData Container record with&amp;nbsp; new Qualifier KVP(isPermantentAssignment : true&lt;br&gt;)" style="rounded=1;whiteSpace=wrap;html=1;absoluteArcSize=1;arcSize=14;strokeWidth=2;" parent="WIyWlLk6GJQsqaUBKTNV-1" vertex="1">
          <mxGeometry x="360" y="-379" width="298" height="100" as="geometry" />
        </mxCell>
        <mxCell id="QHVLCNr028KJjd0Ayz7S-72" value="&lt;b&gt;Qualifier Service New Observer - To add the new isPermanentAssignment Qualifier to ImageOne Cases&amp;nbsp;&lt;/b&gt;" style="text;html=1;strokeColor=none;fillColor=none;align=center;verticalAlign=middle;whiteSpace=wrap;rounded=0;" parent="WIyWlLk6GJQsqaUBKTNV-1" vertex="1">
          <mxGeometry x="36" y="-660" width="694" height="30" as="geometry" />
        </mxCell>
        <mxCell id="QHVLCNr028KJjd0Ayz7S-73" value="&lt;b&gt;UPADS Service New Observer&amp;nbsp; - &lt;/b&gt;&lt;b style=&quot;border-color: var(--border-color);&quot;&gt;To add the new isPermanentAssignment Qualifier to eP Cases&amp;nbsp;&lt;/b&gt;" style="text;html=1;strokeColor=none;fillColor=none;align=center;verticalAlign=middle;whiteSpace=wrap;rounded=0;" parent="WIyWlLk6GJQsqaUBKTNV-1" vertex="1">
          <mxGeometry x="55" y="-440" width="603" height="30" as="geometry" />
        </mxCell>
        <mxCell id="3hb49UW-eey4Er-M_Qjg-0" value="&lt;b&gt;PreRequisite: Pathway Qualifiers - To agree with Pathway to get SuspensionTagExpirationMinutes Value as determination&lt;/b&gt;" style="text;html=1;strokeColor=none;fillColor=none;align=center;verticalAlign=middle;whiteSpace=wrap;rounded=0;" vertex="1" parent="WIyWlLk6GJQsqaUBKTNV-1">
          <mxGeometry x="-102" y="-710" width="929" height="30" as="geometry" />
        </mxCell>
        <mxCell id="3hb49UW-eey4Er-M_Qjg-1" value="&lt;b&gt;Decision Service&amp;nbsp;&lt;/b&gt; - Build Requeststate with Request Suspension details from XPLUpadsReviewCompleted Event" style="text;html=1;strokeColor=none;fillColor=none;align=center;verticalAlign=middle;whiteSpace=wrap;rounded=0;" vertex="1" parent="WIyWlLk6GJQsqaUBKTNV-1">
          <mxGeometry x="-122" y="-230" width="870" height="30" as="geometry" />
        </mxCell>
        <mxCell id="3hb49UW-eey4Er-M_Qjg-7" value="" style="edgeStyle=orthogonalEdgeStyle;rounded=0;orthogonalLoop=1;jettySize=auto;html=1;" edge="1" parent="WIyWlLk6GJQsqaUBKTNV-1" source="3hb49UW-eey4Er-M_Qjg-3" target="3hb49UW-eey4Er-M_Qjg-4">
          <mxGeometry relative="1" as="geometry" />
        </mxCell>
        <mxCell id="3hb49UW-eey4Er-M_Qjg-3" value="Add new properties(IsPendingInQueue,&lt;br&gt;IsPermanentRequestAssignment,&lt;br&gt;SuspensionTagExpirationMinutes) specific to new version in &lt;b&gt;UCXPhysicianDecisionMadeEvent&lt;/b&gt;" style="rounded=1;whiteSpace=wrap;html=1;absoluteArcSize=1;arcSize=14;strokeWidth=2;" vertex="1" parent="WIyWlLk6GJQsqaUBKTNV-1">
          <mxGeometry x="198" y="-180" width="190" height="100" as="geometry" />
        </mxCell>
        <mxCell id="3hb49UW-eey4Er-M_Qjg-4" value="Build the RequestState with new properties" style="rounded=1;whiteSpace=wrap;html=1;absoluteArcSize=1;arcSize=14;strokeWidth=2;" vertex="1" parent="WIyWlLk6GJQsqaUBKTNV-1">
          <mxGeometry x="471" y="-180" width="187" height="100" as="geometry" />
        </mxCell>
        <mxCell id="3hb49UW-eey4Er-M_Qjg-5" value="&lt;b&gt;&amp;nbsp;Header Service&amp;nbsp;&lt;/b&gt; - Displaying &quot;Suspended Request&quot; label in Header Service based on SsupensionTagExpirationMinutes" style="text;html=1;strokeColor=none;fillColor=none;align=center;verticalAlign=middle;whiteSpace=wrap;rounded=0;" vertex="1" parent="WIyWlLk6GJQsqaUBKTNV-1">
          <mxGeometry x="3" y="-50" width="650" height="30" as="geometry" />
        </mxCell>
        <mxCell id="3hb49UW-eey4Er-M_Qjg-17" value="" style="edgeStyle=orthogonalEdgeStyle;rounded=0;orthogonalLoop=1;jettySize=auto;html=1;" edge="1" parent="WIyWlLk6GJQsqaUBKTNV-1" source="3hb49UW-eey4Er-M_Qjg-6" target="3hb49UW-eey4Er-M_Qjg-8">
          <mxGeometry relative="1" as="geometry" />
        </mxCell>
        <mxCell id="3hb49UW-eey4Er-M_Qjg-6" value="Create a new Observer &quot;PhysicianDecisionMadeEventObserver&quot; in Header Service&lt;br style=&quot;border-color: var(--border-color);&quot;&gt;and consume the event &quot;&lt;b style=&quot;border-color: var(--border-color);&quot;&gt;UCX.&lt;/b&gt;&lt;b&gt;PhysicianDecisionMade&lt;/b&gt;&lt;br style=&quot;border-color: var(--border-color);&quot;&gt;&quot;&amp;nbsp;" style="rounded=1;whiteSpace=wrap;html=1;absoluteArcSize=1;arcSize=14;strokeWidth=2;" vertex="1" parent="WIyWlLk6GJQsqaUBKTNV-1">
          <mxGeometry x="60" y="-10" width="220" height="100" as="geometry" />
        </mxCell>
        <mxCell id="3hb49UW-eey4Er-M_Qjg-8" value="Handle the new event and update the HeaderState model in new properties (IsSuspendedRequest, SuspensionTagExpirationMinutes)" style="rounded=1;whiteSpace=wrap;html=1;absoluteArcSize=1;arcSize=14;strokeWidth=2;" vertex="1" parent="WIyWlLk6GJQsqaUBKTNV-1">
          <mxGeometry x="321" y="-10" width="298" height="100" as="geometry" />
        </mxCell>
        <mxCell id="3hb49UW-eey4Er-M_Qjg-16" value="" style="edgeStyle=orthogonalEdgeStyle;rounded=0;orthogonalLoop=1;jettySize=auto;html=1;" edge="1" parent="WIyWlLk6GJQsqaUBKTNV-1" source="3hb49UW-eey4Er-M_Qjg-10" target="3hb49UW-eey4Er-M_Qjg-11">
          <mxGeometry relative="1" as="geometry" />
        </mxCell>
        <mxCell id="3hb49UW-eey4Er-M_Qjg-10" value="Create a new Observer &quot;RoutingRequestAssignmentObserver&quot; in Decsion Service&lt;br style=&quot;border-color: var(--border-color);&quot;&gt;and consume the event &quot;&lt;b style=&quot;border-color: var(--border-color);&quot;&gt;UCX.&lt;/b&gt;RoutingRequestAssignmentevent&lt;br style=&quot;border-color: var(--border-color);&quot;&gt;&quot;&amp;nbsp;" style="rounded=1;whiteSpace=wrap;html=1;absoluteArcSize=1;arcSize=14;strokeWidth=2;" vertex="1" parent="WIyWlLk6GJQsqaUBKTNV-1">
          <mxGeometry x="60" y="292" width="230" height="100" as="geometry" />
        </mxCell>
        <mxCell id="3hb49UW-eey4Er-M_Qjg-11" value="Handle the new Event in Requeststate model and update&amp;nbsp; the new property(isPermantentAssignment)" style="rounded=1;whiteSpace=wrap;html=1;absoluteArcSize=1;arcSize=14;strokeWidth=2;" vertex="1" parent="WIyWlLk6GJQsqaUBKTNV-1">
          <mxGeometry x="360" y="292" width="300" height="100" as="geometry" />
        </mxCell>
        <mxCell id="3hb49UW-eey4Er-M_Qjg-12" value="&lt;b style=&quot;border-color: var(--border-color);&quot;&gt;Decsion Service - &lt;/b&gt;&lt;span style=&quot;border-color: var(--border-color);&quot;&gt;Build the Decision service Requeststate with Assignment type details&lt;/span&gt;" style="text;html=1;strokeColor=none;fillColor=none;align=center;verticalAlign=middle;whiteSpace=wrap;rounded=0;" vertex="1" parent="WIyWlLk6GJQsqaUBKTNV-1">
          <mxGeometry x="-38" y="200" width="570" height="30" as="geometry" />
        </mxCell>
        <mxCell id="3hb49UW-eey4Er-M_Qjg-14" value="&lt;b&gt;&lt;font style=&quot;font-size: 14px;&quot;&gt;Suspend Feature&lt;/font&gt;&lt;/b&gt;" style="text;html=1;strokeColor=none;fillColor=none;align=center;verticalAlign=middle;whiteSpace=wrap;rounded=0;" vertex="1" parent="WIyWlLk6GJQsqaUBKTNV-1">
          <mxGeometry y="-790" width="133" height="30" as="geometry" />
        </mxCell>
        <mxCell id="3hb49UW-eey4Er-M_Qjg-15" value="&lt;b&gt;&lt;font style=&quot;font-size: 14px;&quot;&gt;Skip Feature&lt;/font&gt;&lt;/b&gt;" style="text;html=1;strokeColor=none;fillColor=none;align=center;verticalAlign=middle;whiteSpace=wrap;rounded=0;" vertex="1" parent="WIyWlLk6GJQsqaUBKTNV-1">
          <mxGeometry x="-9" y="150" width="123" height="30" as="geometry" />
        </mxCell>
      </root>
    </mxGraphModel>
  </diagram>
</mxfile>
